<svg width="44" height="31" viewBox="0 0 44 31" fill="none" xmlns="http://www.w3.org/2000/svg">
<path d="M12.6511 31C11.1105 31.0001 9.62784 30.4288 8.50565 29.4028C7.38345 28.3767 6.70622 26.9732 6.6121 25.4784L6.6011 25.1192V22.4461C5.44901 22.4463 4.31695 22.1533 3.31746 21.5963C2.31797 21.0394 1.48588 20.2378 0.903928 19.2713C0.321972 18.3048 0.0104222 17.2071 0.000256982 16.0872C-0.00990828 14.9674 0.281664 13.8645 0.845985 12.8882C1.4103 11.9119 2.22771 11.0961 3.21693 10.5221C4.20615 9.94808 5.33273 9.63575 6.48464 9.61617C7.63654 9.5966 8.77366 9.87046 9.78292 10.4105C10.7922 10.9506 11.6384 11.7381 12.2375 12.6946C13.3953 12.1541 14.6511 11.8402 15.9335 11.7708L16.5011 11.7537H25.3011L25.8467 11.7686L26.3857 11.8114L26.6651 11.8478L26.9071 11.4906L27.1953 11.11L23.2859 7.30991C21.7459 5.81297 21.5853 3.48631 22.8019 1.81401L23.0285 1.52746L23.2859 1.25373C24.9139 -0.328744 27.5055 -0.414284 29.2369 1.00353L29.5163 1.25373L41.4227 12.8293C42.6287 14.0016 43.4582 15.4893 43.8103 17.1114C44.1625 18.7335 44.0222 20.4201 43.4064 21.9661C42.7906 23.5121 41.726 24.8508 40.3419 25.8195C38.9578 26.7882 37.314 27.345 35.6103 27.4223L35.1153 27.4309L34.7149 27.4159L34.6577 27.5528C34.2336 28.4596 33.5795 29.2469 32.7568 29.8409C31.9342 30.4348 30.9698 30.816 29.9541 30.9487L29.5317 30.9893L29.1489 31H12.6511ZM27.1821 3.52266C26.9874 3.33165 26.7261 3.21862 26.4497 3.20591C26.1734 3.19321 25.9023 3.28176 25.6899 3.45406C25.4775 3.62636 25.3394 3.86985 25.3029 4.13638C25.2663 4.40291 25.334 4.67307 25.4925 4.89343L25.6201 5.04312L31.7977 11.048L30.3941 12.4209C29.9321 12.87 29.5471 13.3704 29.2435 13.9093L29.0301 14.3198L28.4449 15.5687L27.0853 15.1988C26.6514 15.0805 26.2061 15.006 25.7565 14.9764L25.2989 14.9614H16.5011C14.9611 14.9614 13.5465 15.4746 12.4245 16.33L12.1099 16.5866L11.7469 16.9288L11.5423 17.1426L11.2981 17.4292L11.0319 17.7863L10.9395 17.9232C10.8493 18.0579 10.7635 18.1991 10.6865 18.3423L10.5589 18.5818L10.4225 18.8748L10.3477 19.0544L10.2355 19.3581L10.1145 19.7516C10.058 19.9609 10.0125 20.1729 9.9781 20.3867L9.9539 20.5642L9.9143 20.9684L9.9011 21.3768V25.1192C9.9011 26.5049 10.9835 27.6426 12.3695 27.7794L12.6511 27.7923H22.0033V27.2662C22.0037 26.6048 21.7517 25.9667 21.2962 25.4753C20.8407 24.984 20.2139 24.6742 19.5371 24.6059L19.2555 24.5931H17.0555C16.6345 24.5973 16.2277 24.4448 15.9186 24.167C15.6094 23.8891 15.4212 23.5069 15.3926 23.0986C15.3639 22.6903 15.4969 22.2867 15.7643 21.9706C16.0318 21.6545 16.4134 21.4497 16.8311 21.3982L17.0555 21.3854H19.2555C20.7961 21.3853 22.2788 21.9566 23.401 22.9826C24.5232 24.0087 25.2004 25.4122 25.2945 26.9069L25.3055 27.2662L25.3033 27.7923H29.1489C30.4513 27.7923 31.5579 26.9069 31.8307 25.7073L31.8747 25.4464L32.0947 23.65L33.9031 24.0735C35.0365 24.3417 36.2283 24.2526 37.3063 23.8192C38.3842 23.3858 39.2925 22.6304 39.8998 21.6623C40.5071 20.6942 40.782 19.5635 40.6849 18.4335C40.5877 17.3036 40.1234 16.2329 39.3591 15.3763L39.0907 15.0983L27.1821 3.52266ZM6.6011 12.8251C5.75714 12.8302 4.94729 13.1495 4.33807 13.7172C3.72884 14.285 3.36656 15.058 3.32571 15.8774C3.28485 16.6969 3.56854 17.5003 4.11842 18.1227C4.66831 18.745 5.44261 19.1389 6.2821 19.2234L6.6011 19.2362L6.8519 19.2255L6.8629 19.1721C6.9399 18.8513 7.0323 18.5412 7.1401 18.2354L7.3535 17.6901L7.5867 17.1854L7.7121 16.9438L7.9981 16.4434L8.1917 16.144L8.5107 15.6949L8.6735 15.4853L8.9111 15.1988L9.1949 14.8844L9.5249 14.5487C9.0629 13.6933 8.2269 13.0731 7.2435 12.8849L6.9113 12.8379L6.6011 12.8229V12.8251Z" fill="#696969"/>
</svg>
