<svg width="44" height="29" viewBox="0 0 44 29" fill="none" xmlns="http://www.w3.org/2000/svg">
<path d="M19.8044 2.6341e-07C22.6107 0.000136257 25.3472 0.886499 27.6339 2.53596C29.9206 4.18541 31.6439 6.51607 32.5644 9.20415L32.7294 9.72392L32.8262 10.0452H37.9522C39.4926 10.0451 40.975 10.6411 42.0968 11.7115C43.2187 12.7818 43.8954 14.2459 43.989 15.805L44 16.1775V18.4083C43.9994 19.3877 43.6358 20.331 42.9814 21.0512C42.3269 21.7715 41.4294 22.216 40.4668 22.2965L40.1522 22.3077H36.575L37.1052 23.6105C37.4718 24.5132 37.4914 25.5225 37.1603 26.4392C36.8292 27.3559 36.1714 28.1136 35.3166 28.5628L35.0152 28.7055C34.6668 28.8514 34.2991 28.9446 33.924 28.9822L33.5478 29H29.6164C28.9444 28.9997 28.2841 28.8209 27.7013 28.4816C27.1185 28.1423 26.6335 27.6543 26.2944 27.0659L26.136 26.7603L24.9502 24.2105L25.069 24.1949C21.989 24.6098 18.8716 24.6589 15.7828 24.3422L14.6894 24.215L13.5124 26.7492C13.2014 27.4193 12.7089 27.986 12.0922 28.383C11.4756 28.78 10.7602 28.9909 10.0298 28.9911H6.061C5.42875 28.9914 4.80618 28.8337 4.24833 28.5319C3.69048 28.2302 3.21456 27.7937 2.86265 27.2611C2.51074 26.7285 2.29368 26.1162 2.23067 25.4783C2.16766 24.8404 2.26065 24.1966 2.5014 23.6038L3.454 21.2615C2.3995 20.6178 1.5272 19.7084 0.92195 18.6217C0.316697 17.535 -0.00091456 16.308 1.97804e-06 15.0599C0.000549954 14.656 0.145187 14.2659 0.407212 13.9617C0.669237 13.6575 1.03096 13.4596 1.4256 13.4047L1.65 13.3891H5.786L6.8794 9.72392C7.7191 6.91109 9.4292 4.44691 11.7568 2.69575C14.0845 0.944592 16.9061 -0.000576064 19.8044 2.6341e-07ZM34.7138 21.6228C33.0176 22.3144 31.284 22.8832 29.5306 23.3294L28.3228 23.6172L29.1192 25.3348C29.1725 25.4506 29.2633 25.5443 29.3766 25.6003L29.4932 25.6405L29.6164 25.6561H33.5478C33.6256 25.656 33.7024 25.6392 33.7733 25.6068C33.8442 25.5744 33.9075 25.5272 33.9591 25.4682C34.0107 25.4091 34.0493 25.3397 34.0724 25.2644C34.0956 25.1891 34.1027 25.1097 34.0934 25.0315L34.056 24.8865L33.0044 22.3077H32.9098L33.814 21.9775L34.7138 21.6228ZM4.8994 21.6228L5.7574 21.9619L6.611 22.2765L5.5506 24.8775C5.51623 24.9624 5.50302 25.0545 5.51215 25.1458C5.52128 25.237 5.55246 25.3246 5.60294 25.4007C5.65342 25.4768 5.72162 25.5391 5.80152 25.5821C5.88142 25.6251 5.97055 25.6474 6.061 25.6472H10.0298L10.1552 25.6315C10.2363 25.6126 10.3121 25.5753 10.3768 25.5223C10.4416 25.4694 10.4937 25.4022 10.5292 25.3259L11.319 23.6238L11.4158 23.6462C9.19089 23.1618 7.01083 22.4856 4.8994 21.6251V21.6228ZM19.8044 3.34392C17.6963 3.34391 15.64 4.00597 13.9181 5.23908C12.1962 6.47219 10.8932 8.21582 10.1882 10.2303L10.0386 10.6921L7.5394 19.0575L7.898 19.1891C15.3117 21.7695 23.3457 21.8734 30.822 19.4858L31.7152 19.1891L32.0716 19.0575L29.5724 10.6921C28.9842 8.7254 27.8319 6.98079 26.2624 5.6805C24.6928 4.38022 22.7771 3.58312 20.7592 3.39077L20.284 3.35508L19.8044 3.34392ZM4.455 17.8439L4.7872 16.7285L3.6718 16.733L3.7268 16.849C3.916 17.2193 4.1646 17.5539 4.455 17.8439ZM33.825 13.3891L35.4882 18.9615L40.1522 18.9638C40.2758 18.9637 40.3958 18.9214 40.4928 18.8437C40.5898 18.766 40.6581 18.6574 40.6868 18.5355L40.7022 18.4061V16.1775C40.702 15.4876 40.4495 14.8222 39.9936 14.3101C39.5376 13.7979 38.9107 13.4753 38.2338 13.4047L37.9522 13.3913H33.825V13.3891Z" fill="#696969"/>
</svg>
